<mxfile host="app.diagrams.net" agent="Mozilla/5.0 (Macintosh; Intel Mac OS X 10_15_7) AppleWebKit/537.36 (KHTML, like Gecko) Chrome/128.0.0.0 Whale/3.28.266.14 Safari/537.36" version="25.0.3">
  <diagram name="페이지-1" id="ysZ-jKtcjkvNpkwvvQhA">
    <mxGraphModel dx="918" dy="455" grid="1" gridSize="10" guides="1" tooltips="1" connect="1" arrows="1" fold="1" page="1" pageScale="1" pageWidth="827" pageHeight="1169" math="0" shadow="0">
      <root>
        <mxCell id="0" />
        <mxCell id="1" parent="0" />
        <mxCell id="jRk8uXMkZBecZdFTt16s-2" value="고객" style="whiteSpace=wrap;html=1;align=center;" parent="1" vertex="1">
          <mxGeometry x="290" y="160" width="100" height="40" as="geometry" />
        </mxCell>
        <mxCell id="jRk8uXMkZBecZdFTt16s-3" value="고객명" style="ellipse;whiteSpace=wrap;html=1;align=center;" parent="1" vertex="1">
          <mxGeometry x="150" y="70" width="100" height="40" as="geometry" />
        </mxCell>
        <mxCell id="jRk8uXMkZBecZdFTt16s-4" value="" style="endArrow=none;html=1;rounded=0;entryX=0.5;entryY=0;entryDx=0;entryDy=0;" parent="1" edge="1">
          <mxGeometry relative="1" as="geometry">
            <mxPoint x="210" y="110" as="sourcePoint" />
            <mxPoint x="350" y="160" as="targetPoint" />
          </mxGeometry>
        </mxCell>
        <mxCell id="jRk8uXMkZBecZdFTt16s-5" value="전화번호" style="ellipse;whiteSpace=wrap;html=1;align=center;fontStyle=4;" parent="1" vertex="1">
          <mxGeometry x="300" y="70" width="100" height="40" as="geometry" />
        </mxCell>
        <mxCell id="jRk8uXMkZBecZdFTt16s-8" value="" style="endArrow=none;html=1;rounded=0;entryX=0.459;entryY=1.021;entryDx=0;entryDy=0;entryPerimeter=0;exitX=0.583;exitY=-0.03;exitDx=0;exitDy=0;exitPerimeter=0;" parent="1" source="jRk8uXMkZBecZdFTt16s-2" target="jRk8uXMkZBecZdFTt16s-5" edge="1">
          <mxGeometry relative="1" as="geometry">
            <mxPoint x="300" y="160" as="sourcePoint" />
            <mxPoint x="440" y="160" as="targetPoint" />
          </mxGeometry>
        </mxCell>
        <mxCell id="jRk8uXMkZBecZdFTt16s-9" value="이메일" style="ellipse;whiteSpace=wrap;html=1;align=center;fontStyle=4;" parent="1" vertex="1">
          <mxGeometry x="430" y="70" width="100" height="40" as="geometry" />
        </mxCell>
        <mxCell id="jRk8uXMkZBecZdFTt16s-11" value="" style="endArrow=none;html=1;rounded=0;entryX=0.473;entryY=0.995;entryDx=0;entryDy=0;entryPerimeter=0;exitX=0.579;exitY=-0.051;exitDx=0;exitDy=0;exitPerimeter=0;" parent="1" source="jRk8uXMkZBecZdFTt16s-2" target="jRk8uXMkZBecZdFTt16s-9" edge="1">
          <mxGeometry relative="1" as="geometry">
            <mxPoint x="300" y="160" as="sourcePoint" />
            <mxPoint x="460" y="160" as="targetPoint" />
          </mxGeometry>
        </mxCell>
        <mxCell id="jRk8uXMkZBecZdFTt16s-12" value="고객코드" style="ellipse;whiteSpace=wrap;html=1;align=center;fontStyle=4;" parent="1" vertex="1">
          <mxGeometry x="500" y="110" width="100" height="40" as="geometry" />
        </mxCell>
        <mxCell id="jRk8uXMkZBecZdFTt16s-13" value="" style="endArrow=none;html=1;rounded=0;entryX=0.5;entryY=1;entryDx=0;entryDy=0;exitX=1;exitY=0.5;exitDx=0;exitDy=0;" parent="1" source="jRk8uXMkZBecZdFTt16s-2" target="jRk8uXMkZBecZdFTt16s-12" edge="1">
          <mxGeometry relative="1" as="geometry">
            <mxPoint x="400" y="180" as="sourcePoint" />
            <mxPoint x="540" y="179.58" as="targetPoint" />
          </mxGeometry>
        </mxCell>
        <mxCell id="jRk8uXMkZBecZdFTt16s-14" value="주소" style="ellipse;whiteSpace=wrap;html=1;align=center;" parent="1" vertex="1">
          <mxGeometry x="140" y="160" width="100" height="40" as="geometry" />
        </mxCell>
        <mxCell id="jRk8uXMkZBecZdFTt16s-15" value="" style="endArrow=none;html=1;rounded=0;entryX=0;entryY=0.5;entryDx=0;entryDy=0;exitX=1;exitY=0.5;exitDx=0;exitDy=0;" parent="1" source="jRk8uXMkZBecZdFTt16s-14" target="jRk8uXMkZBecZdFTt16s-2" edge="1">
          <mxGeometry relative="1" as="geometry">
            <mxPoint x="190" y="160" as="sourcePoint" />
            <mxPoint x="330" y="210" as="targetPoint" />
          </mxGeometry>
        </mxCell>
        <mxCell id="jRk8uXMkZBecZdFTt16s-16" value="상세 주소" style="ellipse;whiteSpace=wrap;html=1;align=center;" parent="1" vertex="1">
          <mxGeometry x="10" y="210" width="100" height="40" as="geometry" />
        </mxCell>
        <mxCell id="jRk8uXMkZBecZdFTt16s-17" value="기본 주소" style="ellipse;whiteSpace=wrap;html=1;align=center;" parent="1" vertex="1">
          <mxGeometry x="10" y="120" width="100" height="40" as="geometry" />
        </mxCell>
        <mxCell id="jRk8uXMkZBecZdFTt16s-18" value="" style="endArrow=none;html=1;rounded=0;entryX=0.5;entryY=0;entryDx=0;entryDy=0;exitX=1;exitY=0.5;exitDx=0;exitDy=0;" parent="1" target="jRk8uXMkZBecZdFTt16s-14" edge="1">
          <mxGeometry relative="1" as="geometry">
            <mxPoint x="110" y="139.82" as="sourcePoint" />
            <mxPoint x="160" y="139.82" as="targetPoint" />
          </mxGeometry>
        </mxCell>
        <mxCell id="jRk8uXMkZBecZdFTt16s-19" value="" style="endArrow=none;html=1;rounded=0;entryX=0.5;entryY=1;entryDx=0;entryDy=0;exitX=1;exitY=0.5;exitDx=0;exitDy=0;" parent="1" target="jRk8uXMkZBecZdFTt16s-14" edge="1">
          <mxGeometry relative="1" as="geometry">
            <mxPoint x="110" y="229.82" as="sourcePoint" />
            <mxPoint x="160" y="229.82" as="targetPoint" />
          </mxGeometry>
        </mxCell>
        <mxCell id="jRk8uXMkZBecZdFTt16s-20" value="가입일" style="ellipse;whiteSpace=wrap;html=1;align=center;" parent="1" vertex="1">
          <mxGeometry x="170" y="230" width="100" height="40" as="geometry" />
        </mxCell>
        <mxCell id="jRk8uXMkZBecZdFTt16s-21" value="" style="endArrow=none;html=1;rounded=0;entryX=0.25;entryY=1;entryDx=0;entryDy=0;exitX=1;exitY=0.5;exitDx=0;exitDy=0;" parent="1" target="jRk8uXMkZBecZdFTt16s-2" edge="1">
          <mxGeometry relative="1" as="geometry">
            <mxPoint x="270" y="250" as="sourcePoint" />
            <mxPoint x="320" y="250" as="targetPoint" />
          </mxGeometry>
        </mxCell>
        <mxCell id="jRk8uXMkZBecZdFTt16s-24" value="지역" style="whiteSpace=wrap;html=1;align=center;" parent="1" vertex="1">
          <mxGeometry x="210" y="555" width="100" height="40" as="geometry" />
        </mxCell>
        <mxCell id="jRk8uXMkZBecZdFTt16s-25" value="지역명" style="ellipse;whiteSpace=wrap;html=1;align=center;" parent="1" vertex="1">
          <mxGeometry x="60" y="510" width="100" height="40" as="geometry" />
        </mxCell>
        <mxCell id="jRk8uXMkZBecZdFTt16s-27" value="" style="endArrow=none;html=1;rounded=0;entryX=1;entryY=0.5;entryDx=0;entryDy=0;exitX=0;exitY=0;exitDx=0;exitDy=0;" parent="1" source="jRk8uXMkZBecZdFTt16s-24" target="jRk8uXMkZBecZdFTt16s-25" edge="1">
          <mxGeometry relative="1" as="geometry">
            <mxPoint x="180" y="570" as="sourcePoint" />
            <mxPoint x="180" y="490" as="targetPoint" />
            <Array as="points" />
          </mxGeometry>
        </mxCell>
        <mxCell id="jRk8uXMkZBecZdFTt16s-28" value="&lt;u&gt;지역코드&lt;/u&gt;" style="ellipse;whiteSpace=wrap;html=1;align=center;" parent="1" vertex="1">
          <mxGeometry x="60" y="600" width="100" height="40" as="geometry" />
        </mxCell>
        <mxCell id="jRk8uXMkZBecZdFTt16s-29" value="" style="endArrow=none;html=1;rounded=0;entryX=1;entryY=0.5;entryDx=0;entryDy=0;exitX=0;exitY=1;exitDx=0;exitDy=0;" parent="1" source="jRk8uXMkZBecZdFTt16s-24" target="jRk8uXMkZBecZdFTt16s-28" edge="1">
          <mxGeometry relative="1" as="geometry">
            <mxPoint x="220" y="670" as="sourcePoint" />
            <mxPoint x="170" y="620" as="targetPoint" />
            <Array as="points" />
          </mxGeometry>
        </mxCell>
        <mxCell id="jRk8uXMkZBecZdFTt16s-31" value="제품" style="whiteSpace=wrap;html=1;align=center;" parent="1" vertex="1">
          <mxGeometry x="780" y="435" width="100" height="40" as="geometry" />
        </mxCell>
        <mxCell id="jRk8uXMkZBecZdFTt16s-32" value="제품명" style="ellipse;whiteSpace=wrap;html=1;align=center;" parent="1" vertex="1">
          <mxGeometry x="630" y="430" width="100" height="40" as="geometry" />
        </mxCell>
        <mxCell id="jRk8uXMkZBecZdFTt16s-33" value="" style="endArrow=none;html=1;rounded=0;entryX=1;entryY=0.5;entryDx=0;entryDy=0;exitX=0;exitY=0;exitDx=0;exitDy=0;" parent="1" source="jRk8uXMkZBecZdFTt16s-31" target="jRk8uXMkZBecZdFTt16s-32" edge="1">
          <mxGeometry relative="1" as="geometry">
            <mxPoint x="750" y="445" as="sourcePoint" />
            <mxPoint x="750" y="365" as="targetPoint" />
            <Array as="points" />
          </mxGeometry>
        </mxCell>
        <mxCell id="jRk8uXMkZBecZdFTt16s-34" value="&lt;u&gt;제품코드&lt;/u&gt;" style="ellipse;whiteSpace=wrap;html=1;align=center;" parent="1" vertex="1">
          <mxGeometry x="700" y="525" width="100" height="40" as="geometry" />
        </mxCell>
        <mxCell id="jRk8uXMkZBecZdFTt16s-35" value="" style="endArrow=none;html=1;rounded=0;entryX=1;entryY=0.5;entryDx=0;entryDy=0;exitX=0;exitY=1;exitDx=0;exitDy=0;" parent="1" source="jRk8uXMkZBecZdFTt16s-31" target="jRk8uXMkZBecZdFTt16s-34" edge="1">
          <mxGeometry relative="1" as="geometry">
            <mxPoint x="790" y="545" as="sourcePoint" />
            <mxPoint x="740" y="495" as="targetPoint" />
            <Array as="points" />
          </mxGeometry>
        </mxCell>
        <mxCell id="jRk8uXMkZBecZdFTt16s-36" value="제품구분" style="ellipse;whiteSpace=wrap;html=1;align=center;" parent="1" vertex="1">
          <mxGeometry x="770" y="370" width="100" height="40" as="geometry" />
        </mxCell>
        <mxCell id="jRk8uXMkZBecZdFTt16s-37" value="" style="endArrow=none;html=1;rounded=0;entryX=1;entryY=0.5;entryDx=0;entryDy=0;exitX=0.403;exitY=0.001;exitDx=0;exitDy=0;exitPerimeter=0;" parent="1" source="jRk8uXMkZBecZdFTt16s-31" edge="1">
          <mxGeometry relative="1" as="geometry">
            <mxPoint x="820" y="430" as="sourcePoint" />
            <mxPoint x="820" y="410" as="targetPoint" />
            <Array as="points" />
          </mxGeometry>
        </mxCell>
        <mxCell id="jRk8uXMkZBecZdFTt16s-38" value="제품구분" style="ellipse;whiteSpace=wrap;html=1;align=center;" parent="1" vertex="1">
          <mxGeometry x="910" y="490" width="100" height="40" as="geometry" />
        </mxCell>
        <mxCell id="jRk8uXMkZBecZdFTt16s-39" value="" style="endArrow=none;html=1;rounded=0;entryX=1;entryY=0.5;entryDx=0;entryDy=0;exitX=0.29;exitY=0.053;exitDx=0;exitDy=0;exitPerimeter=0;" parent="1" source="jRk8uXMkZBecZdFTt16s-38" edge="1">
          <mxGeometry relative="1" as="geometry">
            <mxPoint x="927" y="455" as="sourcePoint" />
            <mxPoint x="877" y="475" as="targetPoint" />
            <Array as="points" />
          </mxGeometry>
        </mxCell>
        <mxCell id="jRk8uXMkZBecZdFTt16s-40" value="제품색상" style="ellipse;shape=doubleEllipse;margin=3;whiteSpace=wrap;html=1;align=center;" parent="1" vertex="1">
          <mxGeometry x="910" y="395" width="100" height="40" as="geometry" />
        </mxCell>
        <mxCell id="jRk8uXMkZBecZdFTt16s-41" value="" style="endArrow=none;html=1;rounded=0;entryX=1;entryY=0.5;entryDx=0;entryDy=0;exitX=0.077;exitY=0.762;exitDx=0;exitDy=0;exitPerimeter=0;" parent="1" source="jRk8uXMkZBecZdFTt16s-40" edge="1">
          <mxGeometry relative="1" as="geometry">
            <mxPoint x="942" y="452" as="sourcePoint" />
            <mxPoint x="880" y="435" as="targetPoint" />
            <Array as="points" />
          </mxGeometry>
        </mxCell>
        <mxCell id="jRk8uXMkZBecZdFTt16s-42" value="가격" style="ellipse;whiteSpace=wrap;html=1;align=center;" parent="1" vertex="1">
          <mxGeometry x="1010" y="440" width="100" height="40" as="geometry" />
        </mxCell>
        <mxCell id="jRk8uXMkZBecZdFTt16s-43" value="" style="endArrow=none;html=1;rounded=0;entryX=1;entryY=0.5;entryDx=0;entryDy=0;exitX=0;exitY=0.5;exitDx=0;exitDy=0;" parent="1" edge="1">
          <mxGeometry relative="1" as="geometry">
            <mxPoint x="1010.0000000000073" y="460" as="sourcePoint" />
            <mxPoint x="880" y="453" as="targetPoint" />
            <Array as="points" />
          </mxGeometry>
        </mxCell>
        <mxCell id="jRk8uXMkZBecZdFTt16s-45" value="" style="endArrow=none;html=1;rounded=0;entryX=0.6;entryY=1;entryDx=0;entryDy=0;entryPerimeter=0;" parent="1" source="xr-PeBuyY38vjqPXpqRf-6" edge="1">
          <mxGeometry relative="1" as="geometry">
            <mxPoint x="422.79999999999995" y="229.07999999999993" as="sourcePoint" />
            <mxPoint x="390" y="195" as="targetPoint" />
            <Array as="points" />
          </mxGeometry>
        </mxCell>
        <mxCell id="xr-PeBuyY38vjqPXpqRf-16" value="N" style="edgeLabel;html=1;align=center;verticalAlign=middle;resizable=0;points=[];" vertex="1" connectable="0" parent="jRk8uXMkZBecZdFTt16s-45">
          <mxGeometry x="-0.7563" y="-1" relative="1" as="geometry">
            <mxPoint x="12" y="-5" as="offset" />
          </mxGeometry>
        </mxCell>
        <mxCell id="xr-PeBuyY38vjqPXpqRf-1" value="관리" style="shape=rhombus;perimeter=rhombusPerimeter;whiteSpace=wrap;html=1;align=center;" vertex="1" parent="1">
          <mxGeometry x="240" y="325" width="120" height="60" as="geometry" />
        </mxCell>
        <mxCell id="xr-PeBuyY38vjqPXpqRf-2" value="" style="endArrow=none;html=1;rounded=0;entryX=0.5;entryY=1;entryDx=0;entryDy=0;exitX=0.5;exitY=0;exitDx=0;exitDy=0;" edge="1" parent="1" source="xr-PeBuyY38vjqPXpqRf-1" target="jRk8uXMkZBecZdFTt16s-2">
          <mxGeometry relative="1" as="geometry">
            <mxPoint x="300" y="320" as="sourcePoint" />
            <mxPoint x="345" y="240" as="targetPoint" />
          </mxGeometry>
        </mxCell>
        <mxCell id="xr-PeBuyY38vjqPXpqRf-4" value="N" style="edgeLabel;html=1;align=center;verticalAlign=middle;resizable=0;points=[];" vertex="1" connectable="0" parent="xr-PeBuyY38vjqPXpqRf-2">
          <mxGeometry x="0.2577" y="-1" relative="1" as="geometry">
            <mxPoint x="-36" y="63" as="offset" />
          </mxGeometry>
        </mxCell>
        <mxCell id="xr-PeBuyY38vjqPXpqRf-3" value="" style="endArrow=none;html=1;rounded=0;entryX=0.5;entryY=1;entryDx=0;entryDy=0;exitX=0.5;exitY=0;exitDx=0;exitDy=0;" edge="1" parent="1" source="jRk8uXMkZBecZdFTt16s-24">
          <mxGeometry relative="1" as="geometry">
            <mxPoint x="260" y="550" as="sourcePoint" />
            <mxPoint x="300" y="385" as="targetPoint" />
          </mxGeometry>
        </mxCell>
        <mxCell id="xr-PeBuyY38vjqPXpqRf-5" value="1" style="edgeLabel;html=1;align=center;verticalAlign=middle;resizable=0;points=[];" vertex="1" connectable="0" parent="xr-PeBuyY38vjqPXpqRf-3">
          <mxGeometry x="0.278" y="2" relative="1" as="geometry">
            <mxPoint x="6" y="-46" as="offset" />
          </mxGeometry>
        </mxCell>
        <mxCell id="xr-PeBuyY38vjqPXpqRf-6" value="구매" style="shape=rhombus;perimeter=rhombusPerimeter;whiteSpace=wrap;html=1;align=center;" vertex="1" parent="1">
          <mxGeometry x="460" y="300" width="120" height="60" as="geometry" />
        </mxCell>
        <mxCell id="xr-PeBuyY38vjqPXpqRf-7" value="&lt;u&gt;구매번호&lt;/u&gt;" style="ellipse;whiteSpace=wrap;html=1;align=center;" vertex="1" parent="1">
          <mxGeometry x="400" y="410" width="100" height="40" as="geometry" />
        </mxCell>
        <mxCell id="xr-PeBuyY38vjqPXpqRf-8" value="수량&amp;nbsp;" style="ellipse;whiteSpace=wrap;html=1;align=center;" vertex="1" parent="1">
          <mxGeometry x="500" y="410" width="100" height="40" as="geometry" />
        </mxCell>
        <mxCell id="xr-PeBuyY38vjqPXpqRf-9" value="구매일자" style="ellipse;whiteSpace=wrap;html=1;align=center;" vertex="1" parent="1">
          <mxGeometry x="600" y="250" width="100" height="40" as="geometry" />
        </mxCell>
        <mxCell id="xr-PeBuyY38vjqPXpqRf-11" value="" style="endArrow=none;html=1;rounded=0;entryX=1;entryY=0.5;entryDx=0;entryDy=0;" edge="1" parent="1" source="xr-PeBuyY38vjqPXpqRf-6">
          <mxGeometry relative="1" as="geometry">
            <mxPoint x="500" y="395" as="sourcePoint" />
            <mxPoint x="450" y="410" as="targetPoint" />
            <Array as="points" />
          </mxGeometry>
        </mxCell>
        <mxCell id="xr-PeBuyY38vjqPXpqRf-12" value="" style="endArrow=none;html=1;rounded=0;entryX=1;entryY=0.5;entryDx=0;entryDy=0;" edge="1" parent="1" source="xr-PeBuyY38vjqPXpqRf-6">
          <mxGeometry relative="1" as="geometry">
            <mxPoint x="600" y="395" as="sourcePoint" />
            <mxPoint x="550" y="410" as="targetPoint" />
            <Array as="points" />
          </mxGeometry>
        </mxCell>
        <mxCell id="xr-PeBuyY38vjqPXpqRf-13" value="" style="endArrow=none;html=1;rounded=0;entryX=1;entryY=0.5;entryDx=0;entryDy=0;" edge="1" parent="1" source="xr-PeBuyY38vjqPXpqRf-9">
          <mxGeometry relative="1" as="geometry">
            <mxPoint x="600" y="300" as="sourcePoint" />
            <mxPoint x="550" y="315" as="targetPoint" />
            <Array as="points" />
          </mxGeometry>
        </mxCell>
        <mxCell id="xr-PeBuyY38vjqPXpqRf-14" value="" style="endArrow=none;html=1;rounded=0;entryX=1;entryY=0.5;entryDx=0;entryDy=0;exitX=0.013;exitY=-0.009;exitDx=0;exitDy=0;exitPerimeter=0;" edge="1" parent="1" source="jRk8uXMkZBecZdFTt16s-31">
          <mxGeometry relative="1" as="geometry">
            <mxPoint x="620" y="320" as="sourcePoint" />
            <mxPoint x="570" y="335" as="targetPoint" />
            <Array as="points" />
          </mxGeometry>
        </mxCell>
        <mxCell id="xr-PeBuyY38vjqPXpqRf-17" value="M" style="text;html=1;align=center;verticalAlign=middle;resizable=0;points=[];autosize=1;strokeColor=none;fillColor=none;" vertex="1" parent="1">
          <mxGeometry x="620" y="330" width="30" height="30" as="geometry" />
        </mxCell>
      </root>
    </mxGraphModel>
  </diagram>
</mxfile>
